<?xml version="1.0" standalone="no"?>
<svg viewBox="-350 -150 1500 1500" style="width: 195px; height: 195px; justify-content: center; align-self: center; transform: scale(1, 1);" xmlns="http://www.w3.org/2000/svg"><rect x="-350" y="-150" width="100%" height="100%" fill="#ffffff" rx="30"></rect><g transform="rotate(0 410.5864505767822 583.1882177591324)"><g transform="translate(0 459)"><path d="M748.281 585.022C744.25 562.258 740.555 539.434 737.197 516.56C735.603 505.7 734.049 494.83 732.65 483.942C731.671 476.314 730.18 467.591 735.37 461.942C742.673 453.99 749.307 447.184 750.201 435.793C751.042 425.076 747.418 413.393 745.152 402.99C740.4 381.174 734.484 359.628 727.948 338.286C721.306 316.603 714.024 295.124 706.637 273.686C699.731 253.642 693.092 233.417 684.097 214.186C667.026 177.691 638.146 150.664 602.454 132.618C593.578 128.13 575.472 112.108 566.198 108.521C557.672 105.223 557.703 114.854 549.311 111.226C542.603 108.326 536.357 104.459 532.601 97.9817C528.523 90.9492 518.297 81.1132 516.74 72.9271C513.441 55.5756 517.014 40.8073 504.63 27.7476C493.637 16.1509 478.859 8.20616 463.569 3.94138C429.933 -5.44032 385.075 1.11856 364.781 32.3739C355.088 47.3001 351.701 65.3415 338.622 77.523C327.202 88.1594 329.757 95.4313 314.965 100.913C314.127 101.224 291.42 96.3534 290.582 96.6648C274.4 93.2021 258.934 102.895 244.087 108.521C221.954 116.905 200.883 127.819 181.085 140.79C141.166 166.945 106.976 200.908 78.7895 239.341C50.3695 278.091 28.3185 321.523 12.6175 366.917C8.8045 377.943 5.3795 389.103 2.3585 400.372C0.667503 406.679 -1.1395 413.221 0.919503 419.677C2.6035 424.96 6.3495 428.893 10.7485 432.062C16.7115 436.359 28.6725 439.152 28.4395 447.794C28.2615 454.364 26.0325 461.279 24.9445 467.772C23.6495 475.504 22.5855 483.282 21.5215 491.048C16.6815 526.398 12.9145 561.947 11.2485 597.597C9.6085 632.699 8.2475 668.518 10.6825 703.61C10.8435 705.924 11.5335 708.048 12.6465 709.843C11.6075 710.241 11.5275 712.178 12.8205 712.452C13.7265 712.644 14.6305 712.835 15.5365 713.028C17.4185 714.452 19.7655 715.325 22.4665 715.41C24.2975 715.468 26.1275 715.55 27.9565 715.644C47.2575 719.679 66.5555 723.49 86.1085 726.376C109.876 729.883 133.714 732.743 157.626 735.069C206.762 739.845 255.51 738.261 304.71 735.686C353.833 733.115 402.928 732.514 452.104 733.793C501.322 735.074 550.521 737.214 599.75 738.091C654.75 739.068 709.664 737.566 764.504 733.194C772.023 732.595 776.675 726.613 775.193 719.145C766.307 674.402 756.238 629.958 748.281 585.022Z" transform="translate(25.9997 -31.99965)" fill="#FFFFFF" stroke="none"></path><path d="M387.499 11.4142C390.401 2.82024 378.393 -3.89576 372.349 2.59424C368.625 6.5925 367.134 11.7389 365.35 16.7859L364.976 17.8282C363.504 21.8572 361.659 25.7562 359.605 29.5212C355.317 37.3812 349.885 44.6692 343.661 51.1022C330.891 64.2992 314.162 73.6282 297.126 80.2062C296.582 80.4162 296.353 80.8962 296.408 81.3372C295.593 80.2272 294.779 79.1172 293.969 78.0072C293.529 77.4062 292.433 77.7312 292.683 78.5492C307.284 126.366 348.611 165.008 395.354 181.324C443.676 198.192 499.563 190.729 537.318 154.758C556.111 136.853 569.596 112.78 573.128 86.9302C573.281 85.8062 573.244 84.7832 573.07 83.8542C589.682 97.8742 607.105 110.89 623.392 125.306C642.416 142.146 660.893 160.15 676.08 180.597C691.487 201.344 703.101 224.254 710.862 248.896C718.244 272.335 722.639 296.55 726.714 320.754L728.773 333.051C733.39 360.393 738.797 387.342 746.69 413.895C737.862 416.725 729.065 419.643 720.268 422.581L703.534 428.171C699.095 429.654 694.083 432.097 689.427 433.074C686.213 432.549 683.001 433.893 680.87 436.224C679.693 417.484 678.804 398.731 678.163 379.989C677.675 365.731 677.406 351.456 676.792 337.203C676.149 322.266 674.837 307.385 674 292.487C673.972 291.992 673.312 292.019 673.25 292.487C671.482 305.775 669.502 318.924 668.55 332.341C667.61 345.596 667.176 358.922 667.064 372.21C666.845 398.134 667.226 424.054 668.459 449.951C670.957 502.44 675.903 554.844 683.698 606.813C685.91 621.565 688.387 636.273 691.074 650.945C692.359 657.961 693.69 664.967 695.067 671.965C695.813 675.756 696.399 679.664 697.363 683.407C698.424 687.528 700.305 689.488 703.911 691.751C706.634 693.458 709.993 692.188 711.672 689.715C713.717 686.704 714.725 684.452 714.153 680.792C713.653 677.596 712.89 674.423 712.249 671.253C710.963 664.899 709.715 658.539 708.506 652.17C706.087 639.434 703.86 626.664 701.693 613.882C697.317 588.069 693.612 562.138 690.27 536.172C686.597 507.635 683.841 478.952 681.805 450.219C683.505 451.871 685.707 452.78 688.595 453.134C693.024 453.676 698.063 451.574 702.619 449.672C704.131 449.041 705.591 448.432 706.957 447.949L729.068 440.133L733.599 438.524C733.796 452.029 735.189 465.691 736.329 479.016L737.23 489.544C738.431 503.58 739.62 517.614 740.743 531.659C743.273 563.319 748.278 594.839 753.548 626.168L755.084 635.258C756.728 644.966 758.412 654.666 760.136 664.359C760.998 669.204 761.911 674.035 762.874 678.86C763.376 681.377 763.653 684.129 764.421 686.572C765.634 690.43 768.314 692.026 771.734 693.626L772.364 693.917C774.279 694.795 776.538 694.785 778.101 693.176C780 691.222 782.127 689.297 782.876 686.572C783.482 684.366 783.039 682.092 782.607 679.878C782.571 679.693 782.535 679.509 782.5 679.325L782.361 678.574C781.562 674.048 780.803 669.514 779.966 664.994C778.412 656.612 776.814 648.238 775.283 639.852C772.103 622.438 769.231 604.968 766.048 587.556C759.822 553.502 752.561 519.621 746.635 485.522C743.847 469.48 741.578 452.964 737.857 437.001C745.435 434.291 753.001 431.547 760.539 428.713C766.576 426.444 768.474 421.032 766.012 415.261C756.494 392.953 751.784 368.499 747.568 344.518L744.786 328.601C740.269 302.624 735.99 276.525 728.532 251.196C713.337 199.588 681.976 155.763 640.12 122.239C619.88 106.029 598.373 91.4176 575.021 80.2078L574.877 80.1399C573.354 79.4342 569.422 77.9608 566.075 77.8262C562.616 77.6872 559.081 79.9082 558.488 84.9492L558.476 85.0312L558.046 84.5732C555.701 82.1876 552.534 80.6843 549.918 78.6052C547.233 76.4712 544.746 74.0392 542.452 71.4942C538.165 66.7372 534.643 61.1932 531.705 55.5132C525.701 43.9051 523.856 31.5877 522.375 18.8544L522.083 16.3022C521.897 14.6672 519.711 13.7282 518.763 15.4032C511.081 28.9902 512.885 47.0492 518.511 61.0752C521.585 68.7392 525.779 75.5192 531.149 81.7982C536.113 87.6022 543.733 95.6972 551.43 97.3682C553.229 97.7592 554.868 97.5482 556.247 96.9302C546.627 134.346 513.917 163.705 476.789 173.126C429.599 185.101 380.729 168.267 344.836 137.056C327.219 121.738 312.603 103.256 298.749 84.5149L296.984 82.1212C297.105 82.1782 297.242 82.2182 297.4 82.2322C317.878 83.9632 336.893 75.8522 352.839 63.3622C369.803 50.0762 380.673 31.6332 387.499 11.4142ZM294.039 69.283C290.11 68.8407 286.143 68.3941 282.235 68.5639C277.201 68.7829 272.184 69.1039 267.174 69.6639C257.886 70.7039 248.234 73.2299 239.363 76.1339C220.384 82.3479 202.438 91.1369 185.598 101.841C151.152 123.735 121.762 152.927 96.8833 185.117C69.2443 220.878 46.6173 260.429 29.0873 302.061C20.3323 322.856 12.8513 344.171 6.80127 365.91C5.30927 371.271 3.89527 376.655 2.58227 382.063L2.46597 382.535C2.28315 383.268 2.08773 384.013 1.8899 384.768C0.638578 389.539 -0.708997 394.677 0.429273 399.431C1.61127 404.372 5.27327 407.72 9.51927 410.161C14.8713 413.238 20.5643 415.854 26.0703 418.642C29.1743 420.214 32.2903 421.779 35.4153 423.333C27.3894 448.456 23.4478 475.129 19.8575 501.21L17.9349 515.239C13.0099 551.581 9.2414 588.071 7.35527 624.707C6.81627 635.186 6.37327 645.67 6.02627 656.157C5.85327 661.4 5.70427 666.644 5.58027 671.889C5.56362 672.584 5.53772 673.28 5.51188 673.975C5.30647 679.496 5.10421 684.932 9.57027 689.045C13.3263 692.503 18.4523 692.328 22.2473 689.045C25.9836 685.812 26.4351 681.699 26.5475 677.258L26.6849 670.25C26.7509 667.191 26.8256 664.132 26.9083 661.073C27.1553 651.896 27.4773 642.722 27.8723 633.55C28.6763 614.888 29.5993 596.228 30.8673 577.591C33.3783 540.691 36.7333 503.919 40.5383 467.133C41.9013 453.951 43.3093 440.738 43.8923 427.501C84.1703 447.059 126.391 463.798 171.584 465.255C170.254 479.823 168.962 494.392 167.766 508.974C164.391 550.087 160.742 591.17 157.57 632.301C156.702 643.571 155.855 654.841 155.066 666.117C154.819 669.642 154.514 673.182 154.208 676.728C153.484 685.123 152.756 693.557 152.794 701.921C152.815 706.432 156.252 710.367 160.72 710.899C164.758 711.379 170.09 708.903 170.749 704.351C173.706 683.928 174.125 662.84 175.42 642.247C176.713 621.695 178.145 601.146 179.253 580.583C181.466 539.477 183.956 498.378 185.831 457.256C186.89 434.038 187.86 410.747 184.825 387.636C184.703 386.704 183.368 386.35 183.075 387.399C177.627 406.921 175.131 427.169 173.229 447.31L172.895 450.953C130.234 449.862 89.7267 434.102 51.8161 415.517L49.4983 414.376C48.0121 413.642 33.1923 406.104 24.2954 401.519L19.7343 399.154C18.3833 398.446 15.4753 397.605 14.7273 396.244C14.067 395.042 14.8618 392.431 15.411 390.627C15.5655 390.119 15.7005 389.675 15.7783 389.345C16.9843 384.212 18.2563 379.095 19.6083 373.998C25.1683 353.049 32.0323 332.447 40.1333 312.345C69.9633 238.324 117.233 166.83 182.545 119.609C199.506 107.346 217.935 96.6719 237.339 88.7639C247.075 84.7959 256.837 81.7269 266.894 78.7519L270.713 77.6218C279.631 74.9862 288.613 72.3909 297.693 70.4939C298.191 70.3899 298.023 69.7079 297.581 69.6649C296.406 69.5493 295.224 69.4164 294.039 69.283Z" transform="translate(19.00033 -4.999743)" fill="#000000" fill-rule="evenodd" stroke="none"></path></g><g transform="translate(225 0)"><g><g><path d="M318.32 82.8093C324.921 92.0339 352.849 139.961 358.835 164.878C365.083 190.885 365.137 185.013 365.294 185.01C365.404 185.008 365.564 187.859 367.909 206.361C376.103 271.01 380.903 342.584 340.734 396.831C333.469 405.423 303.362 438.791 245.144 441.912C196.292 444.53 146.905 429.964 107.737 400.857C103.414 397.667 102.478 393.258 103.704 389.626C89.6846 377.602 79.2426 359.885 76.1966 341.294C75.2246 338.109 71.1966 338.003 68.1836 337.298C49.3846 333.974 27.1076 328.161 23.6126 306.167C21.6638 287.722 28.4326 275.679 35.075 263.862C43.764 248.403 52.2367 233.33 40.6966 204.813C37.4291 192.388 30.947 177.91 24.0993 162.615C6.0757 122.358 -14.4806 76.444 14.3796 47.4367C22.8566 39.0167 35.0016 34.2227 46.6586 36.6757C123.295 0.184735 212.073 -9.82326 294.703 10.0207C306.637 12.8787 319.359 15.7307 328.985 23.7897C340.668 33.6044 334.126 43.5569 327.051 54.322C321.25 63.1476 315.091 72.5194 318.32 82.8093ZM41.0426 39.3647C33.7916 40.6897 27.1586 44.8357 21.9726 50.4007C27.9356 46.1267 34.4146 42.6757 41.0426 39.3647ZM11.8146 98.3847C10.8976 94.1437 10.2816 89.8617 10.0876 85.5807C11.2466 87.3427 13.0976 88.5197 15.1766 89.1277C13.8336 92.1347 12.6916 95.2327 11.8146 98.3847Z" transform="translate(46.00028 51.99976)" fill="#FFFFFF" fill-rule="evenodd" stroke="none"></path><path d="M232.262 0.0923081C226.332 -0.617692 221.152 2.82231 219.322 8.54231C219.012 9.53231 218.692 10.5223 218.392 11.5123C215.832 19.7723 213.622 28.1623 212.012 36.6623C212.132 34.1023 212.342 31.5423 212.702 29.0123C213.021 26.7778 213.571 24.5418 214.122 22.3021C215.003 18.7181 215.887 15.1247 215.832 11.5123C215.672 0.162308 200.572 -3.81769 194.682 5.78231C191.228 11.4007 190.522 18.9457 189.823 25.5552L189.508 28.4479C189.424 29.2612 189.348 30.079 189.282 30.8923C188.482 30.9923 187.672 31.1323 186.852 31.3323C185.652 27.0033 184.562 22.6523 183.642 18.2533C182.332 12.0033 174.982 8.38231 169.112 10.0033C162.652 11.7723 159.522 18.2723 160.862 24.5323C162.272 31.1723 163.942 37.7723 166.092 44.2123C165.672 44.6423 165.272 45.0823 164.902 45.5223C163.452 42.8023 161.972 40.1023 160.522 37.3923C157.962 32.5923 155.812 27.1223 151.782 23.3823C143.272 15.4823 131.452 23.1723 132.842 33.7533C130.272 30.7123 126.012 28.9723 122.182 29.4923C114.762 30.4923 111.722 36.9623 112.662 43.7823C113.302 48.3923 115.632 52.8123 117.462 57.0623L117.805 57.8573L118.142 58.6523L118.092 58.6723L117.604 57.5851C116.283 54.6934 114.805 51.8668 113.312 49.1823C106.732 37.3323 89.8017 45.7623 91.9217 57.2323C88.5817 54.4223 83.3717 53.6023 79.5218 55.2323C73.2117 57.8923 71.5417 64.0723 73.3917 69.9623C72.4417 68.9923 71.4617 68.2023 70.7317 67.7423C65.1617 64.2423 58.7617 67.0033 55.2417 71.8023C53.5217 74.1423 52.8917 76.7823 53.0717 79.3723C49.7317 77.7723 45.9917 77.5423 42.4517 79.6123C38.0117 82.2123 35.9917 87.5823 37.2017 92.5123C38.1817 96.4723 40.6017 100.202 43.3917 103.632C40.6117 101.342 37.7217 99.2123 34.7717 97.2823C31.3717 95.0723 26.5317 95.2623 23.1117 97.2823C19.1717 99.6223 17.7317 102.802 17.3917 107.262C17.0817 111.292 19.8317 115.222 23.1117 117.232C23.2717 117.332 23.4317 117.422 23.5917 117.512C19.2517 116.492 14.9017 116.102 10.9617 117.052C1.57175 119.332 0.591746 132.262 8.35175 137.032C10.0717 138.092 11.8817 138.722 13.7317 139.132C13.0817 139.142 12.4417 139.142 11.8017 139.132C7.84175 139.072 3.83175 141.342 1.89175 144.812C1.70175 145.162 1.50175 145.522 1.30175 145.872C-0.738254 149.532 -0.498254 155.082 2.86175 158.003L3.69175 158.722C4.64175 159.542 5.72175 160.282 6.87175 160.862C4.94175 162.582 3.42175 164.772 2.51175 167.562C1.26175 171.352 3.28175 176.632 6.94175 178.442C12.4917 181.192 18.1317 180.062 23.7417 178.232C22.9271 185.573 23.9827 193.304 25.0989 200.534L25.6117 203.832C27.5417 216.292 30.5217 228.542 34.3017 240.562C38.2317 253.022 43.0617 258.202 48.5717 270.052L49.4895 272.005C51.9576 277.203 54.5906 282.322 57.3817 287.362L57.759 288.047C60.9031 293.772 64.071 299.983 68.5518 304.742C69.3617 305.602 70.2717 306.282 71.2417 306.812C66.8217 309.972 62.9417 313.882 59.8417 318.452C43.8317 342.072 52.4417 377.542 78.7817 389.442C87.1617 393.232 100.762 396.132 111.032 393.042C112.962 406.162 117.632 418.652 125.152 429.732C129.392 435.972 134.262 441.852 139.602 447.172L139.946 447.519C140.341 447.919 140.765 448.36 141.216 448.827C145.654 453.428 152.608 460.639 158.422 458.262C160.482 457.422 161.652 456.042 161.822 453.782C162.189 449.077 157.375 445.452 153.251 442.347C151.88 441.315 150.585 440.34 149.582 439.402C144.432 434.592 139.752 429.322 135.622 423.612C128.162 413.322 121.692 402.172 116.622 390.482C118.702 389.132 120.502 387.372 121.882 385.132C123.952 381.782 121.212 377.942 117.632 377.722C114.31 377.518 111.187 378.204 108.051 378.893C105.343 379.488 102.626 380.085 99.7617 380.112C93.8418 380.172 87.8917 378.812 82.6618 375.992C71.8217 370.142 65.5117 358.852 65.2217 346.632C64.9317 334.202 70.7118 322.662 80.7118 315.262C85.6817 311.582 91.3217 308.982 97.2817 307.382L97.4463 307.339C102.226 306.077 116.764 302.919 118.642 309.412C114.682 306.872 110.022 305.642 105.102 306.222C104.482 306.302 104.192 307.292 104.932 307.422C110.752 308.482 115.842 311.222 119.162 316.032C119.512 316.522 119.832 317.032 120.132 317.562C120.892 318.892 123.182 319.422 124.252 318.092C131.139 309.423 130.692 297.967 129.803 287.46L129.449 283.449C129.025 278.718 128.641 273.874 129.262 269.182C130.072 263.022 132.432 264.062 134.712 258.322C139.532 246.142 143.482 234.352 144.812 221.242C146.094 208.531 144.38 196.38 141.865 183.999L141.255 181.038C140.471 177.17 139.843 173.086 140.662 169.212C146.398 163.591 154.595 160.312 162.55 157.751L163.772 157.362C178.472 152.753 193.282 148.542 208.342 145.292C230.262 140.562 252.572 137.602 274.962 136.442C276.322 138.132 277.662 139.822 278.992 141.512C283.822 147.682 288.492 153.852 292.792 160.402C297.792 168.042 302.032 180.142 312.692 180.362C315.792 180.422 318.992 178.612 320.492 175.892C325.485 166.798 318.141 157.681 312.304 150.435C311.955 150.001 311.611 149.574 311.276 149.154L309.312 146.665C307.983 144.992 306.622 143.334 305.222 141.702C306.712 142.742 308.192 143.792 309.662 144.842C316.132 149.492 322.482 154.132 328.552 159.312C329.964 160.518 331.381 161.891 332.829 163.293C338.537 168.823 344.722 174.815 352.962 172.852C355.812 172.182 358.752 169.472 359.302 166.522C361.221 156.182 352.344 149.868 344.702 144.432C344.279 144.131 343.86 143.832 343.446 143.536L340.928 141.72C339.007 140.35 337.054 139.01 335.062 137.722C337.012 137.902 338.962 138.102 340.912 138.312C341.908 138.419 342.918 138.572 343.933 138.725C346.812 139.16 349.738 139.602 352.532 139.032C364.992 152.503 375.422 167.852 383.462 184.452C400.552 219.692 406.132 251.672 406.162 290.522C406.182 311.442 404.792 332.362 402.392 353.142L402.24 354.466C399.972 374.336 398.12 394.666 391.762 413.732C381.772 443.702 358.202 469.732 328.932 481.832C292.032 497.092 250.452 489.952 218.302 467.402C210.252 461.753 199.802 475.042 207.682 481.162C238.572 505.162 280.722 513.292 318.432 502.892C352.322 493.552 383.052 469.012 398.822 437.503C408.232 418.712 411.972 398.232 414.012 377.482C416.212 355.022 416.722 332.052 416.702 309.492L416.7 308.226C416.581 267.326 411.625 232.1 395.472 194.062C388.122 176.772 378.462 160.032 366.322 145.552C368.722 147.072 371.012 148.632 373.102 150.212C381.112 156.272 386.972 167.582 397.592 168.572C401.672 168.962 405.922 165.322 406.882 161.512C409.93 149.429 396.737 139.449 388.086 133.003L386.589 131.897C383.334 129.539 379.944 127.43 376.462 125.512C380.582 126.342 384.672 127.362 388.682 128.592C392.562 129.782 396.222 131.172 399.822 133.032C400.714 133.494 401.602 133.986 402.495 134.48C406.544 136.721 410.662 138.999 415.432 138.712C421.692 138.332 426.862 132.672 424.972 126.182C421.854 115.503 408.363 110.652 398.368 107.606L396.932 107.172C391.762 105.632 386.452 104.542 381.102 103.772C383.732 104.102 386.352 104.462 388.972 104.872C394.032 105.652 399.072 106.542 404.092 107.552C405.49 107.834 406.939 108.202 408.412 108.577C412.384 109.587 416.537 110.644 420.382 110.162C431.282 108.782 435.902 95.8523 426.062 89.2123C421.552 86.1723 415.692 85.5623 410.442 84.5123L408.289 84.0905C403.979 83.2605 399.65 82.5123 395.322 81.8523C389.042 80.8823 382.732 80.0523 376.412 79.3823C382.832 79.2823 386.692 78.2023 390.572 72.7623C392.602 69.9323 392.402 65.2123 390.572 62.3523C385.307 54.1397 375.262 55.1365 366.516 56.0045C366.02 56.0537 365.528 56.1025 365.041 56.1492L362.529 56.3831C354.967 57.1161 347.439 58.2879 340.042 60.0223C335.582 61.0623 331.142 62.2823 326.782 63.6923C326.412 63.3723 326.012 63.0923 325.592 62.8323C331.432 60.1223 337.452 57.9523 343.652 56.1723C347.352 55.1023 351.142 54.4123 354.842 53.3923C360.102 51.9423 363.102 48.8923 365.002 43.8723C365.982 41.2533 364.922 37.3223 362.792 35.5223C358.022 31.5033 353.322 30.8123 347.512 32.9723C343.592 34.4323 339.732 36.1223 335.932 37.8723C329.172 40.9923 322.582 44.6023 316.252 48.5523C317.022 47.8276 317.838 47.0872 318.674 46.329C325.736 39.9204 334.194 32.2458 328.132 22.1323C324.972 16.8523 318.572 15.5823 313.262 18.2323C309.042 20.3423 307.562 24.7123 304.352 27.4923C300.922 30.4523 297.582 33.1223 294.712 36.6823C294.492 36.9523 294.282 37.2223 294.082 37.4923C293.652 37.3623 293.202 37.2623 292.752 37.1823C295.382 33.0923 298.052 29.0423 300.872 25.0723C304.582 19.8423 301.802 11.8823 296.622 8.85231C290.832 5.46231 283.932 7.74231 280.402 13.1023C277.332 17.7623 274.362 22.5123 271.662 27.4023C270.682 27.4823 269.682 27.6723 268.662 27.9723C268.012 28.1623 267.412 28.3923 266.832 28.6423L268.722 24.1623L268.987 24.0259C271.445 22.7256 273.432 20.6561 274.012 17.6823C275.152 11.8523 273.282 6.41231 268.042 3.35231C263.082 0.452308 256.022 1.29231 251.952 5.35231C248.772 8.53231 247.642 13.8123 246.032 17.9223C244.532 21.7723 243.022 25.6023 241.522 29.4423C240.072 29.1723 238.642 29.0923 237.242 29.1523C238.212 26.1623 239.192 23.1823 240.212 20.2123C241.012 18.6623 241.552 17.0223 241.942 15.1923L242.072 14.8123L242.047 14.8111L242.022 14.8023C242.212 13.8223 242.372 12.7823 242.492 11.6723C243.132 5.92231 237.512 0.712308 232.262 0.0923081ZM341.348 88.3673L341.821 88.6658C344.202 90.1308 346.808 91.2129 348.867 93.1563C351.681 95.8153 347.43 100.049 344.624 97.3993L344.26 97.0755C342.523 95.6112 340.216 94.7775 338.319 93.5483C335.087 91.4533 338.098 86.2613 341.348 88.3673ZM69.3347 102.753C65.7497 101.319 64.1927 107.12 67.7397 108.539L80.6998 113.722C84.2848 115.156 85.8418 109.356 82.2948 107.937L69.3347 102.753ZM294.972 116.315C291.321 115.097 292.896 109.304 296.567 110.529C302.105 112.377 307.582 114.314 312.835 116.879C316.309 118.575 313.264 123.748 309.807 122.06C305.021 119.723 300.017 117.998 294.972 116.315ZM70.1987 150.01C73.9987 149.37 72.3877 143.587 68.6037 144.225C63.7017 145.051 58.8187 145.99 53.9157 146.817C50.1167 147.457 51.7277 153.24 55.5117 152.603C60.4137 151.776 65.2967 150.837 70.1987 150.01ZM107.811 155.287L107.409 155.718C105.574 157.756 104.256 160.17 103.02 162.613L102.232 164.184C100.502 167.641 95.3277 164.599 97.0507 161.155C98.8587 157.543 100.739 153.979 103.568 151.045C106.255 148.258 110.492 152.506 107.811 155.287ZM89.0416 336.323C102.292 334.273 114.402 341.663 122.252 352.013C123.682 353.903 122.742 356.573 121.452 358.163C120.522 359.333 119.272 359.473 117.862 359.653C116.242 359.863 114.192 358.553 113.482 357.143C108.432 347.063 99.4216 340.693 89.0416 336.773C88.8516 336.703 88.7916 336.363 89.0416 336.323Z" transform="translate(5.999954 0.9991919)" fill="#000000" fill-rule="evenodd" stroke="none"></path></g></g><g transform="translate(159 186)"><g><path d="M140.63 0.473197L139.193 0.179116C137.503 -0.15929 135.804 -0.0161244 134.311 0.591153C132.847 1.18684 131.572 2.2242 130.68 3.72083C129.495 5.71373 129.337 7.38618 129.887 9.59525C130.311 11.3022 131.242 12.5864 132.46 13.5139C133.744 14.4911 135.37 15.0612 137.06 15.2595C144.854 16.175 152.53 17.8896 159.992 20.3235C163.488 21.4643 166.788 23.0096 170.058 24.6132L172.877 26.002C175.477 27.2735 178.163 28.499 181.557 29.3885C181.824 29.4584 182.087 29.5243 182.349 29.5865C183.29 29.2909 183.45 28.9329 183.649 28.6733L183.73 28.5721C183.972 28.2679 184.271 27.8025 183.988 25.6306C176.583 10.2711 156.267 3.74181 140.63 0.473197ZM43.5878 4.83023L45.4652 4.50163C51.273 3.49719 58.4944 2.53203 62.6028 7.20123C64.7819 9.67723 65.5318 14.2792 62.6028 16.6492C58.7671 19.7539 54.6298 19.6513 50.2182 19.5419C48.7043 19.5044 47.1582 19.466 45.5808 19.5562C40.4928 19.8482 35.6028 20.6902 30.7018 22.0912C19.9498 25.1642 11.1888 30.7742 2.00585 36.9342C0.800849 37.7422 -0.429151 36.2012 0.145849 35.0742C5.44685 24.6912 15.7198 16.1622 26.0098 10.9632C31.5019 8.18823 37.5118 5.88623 43.5878 4.83023ZM29.9632 50.1461C30.7976 39.7899 46.5702 37.4381 48.1392 47.6861C49.5442 56.8661 47.8902 65.2991 43.7552 73.5641C39.8042 81.4601 29.8737 77.7763 29.1227 70.5863C28.3809 63.4843 28.9069 59.2482 29.4428 54.933C29.6341 53.3921 29.8267 51.8412 29.9632 50.1461ZM159.205 41.8262C155.401 40.7152 152.226 42.6812 150.027 45.5612C149.773 45.8932 149.566 46.2222 149.38 46.5482C142.515 52.8562 145.101 65.6452 150.501 72.0492C153.814 75.9762 161.145 74.8452 163.413 70.3852C167.587 62.1722 171.09 45.2992 159.205 41.8262ZM128.748 119.039C136.872 107.66 125.366 96.9569 117.814 92.3669C115.836 90.9469 117.406 86.2431 121.634 86.9701C160.031 93.5671 140.136 159.708 91.112 123.413C85.2754 118.704 92.3434 108.334 98.6342 112.366C98.9532 112.611 99.2876 112.869 99.6364 113.139C106.704 118.603 119.636 128.601 128.748 119.039ZM93.5865 188.926C86.8642 186.184 80.8663 181.61 76.4812 175.766C74.9566 173.735 74.5614 171.589 74.8812 169.627C75.2408 167.421 76.546 165.422 78.326 164.08C80.1115 162.735 82.345 162.072 84.5043 162.41C86.3806 162.704 88.2484 163.731 89.7265 165.862L90.0354 166.288C92.6424 169.815 96.0396 172.708 99.9104 174.574C103.641 176.372 107.814 177.211 112.132 176.723C120.356 175.794 126.024 171.346 132.049 165.306C132.796 164.544 133.543 163.757 134.294 162.958C134.768 162.234 135.426 161.768 136.157 161.524C136.968 161.253 137.886 161.268 138.726 161.562C139.537 161.845 140.262 162.381 140.747 163.094C141.209 163.772 141.471 164.61 141.386 165.574C140.835 171.833 137.562 177.419 132.914 181.805C127.752 186.677 120.909 190.047 114.466 191.229C107.368 192.531 100.136 191.598 93.5865 188.926Z" transform="translate(53.00005 52.00027)" fill="#000000" fill-rule="evenodd" stroke="none"></path></g></g><g transform="translate(123 338)"></g><g transform="translate(47 241)"></g></g></g></svg>